<svg width="250" height="184" viewBox="0 0 250 184" fill="none" xmlns="http://www.w3.org/2000/svg">
<path d="M159.313 137.939V182.294H49.8708C37.4013 182.294 27.2561 172.345 27.2561 160.117C27.2561 147.888 37.4013 137.939 49.8708 137.939H159.313Z" fill="#F2F2F2"/>
<path d="M162.001 181.953C162.001 182.405 161.823 182.839 161.508 183.159C161.193 183.479 160.766 183.659 160.321 183.659H47.9214C41.8168 183.659 35.9622 181.196 31.6456 176.813C27.329 172.43 24.904 166.486 24.904 160.287C24.904 154.089 27.329 148.144 31.6456 143.761C35.9622 139.378 41.8168 136.915 47.9214 136.915H160.321C160.766 136.915 161.194 137.095 161.509 137.415C161.824 137.735 162.001 138.169 162.001 138.621C162.001 139.074 161.824 139.508 161.509 139.828C161.194 140.148 160.766 140.327 160.321 140.327H47.9214C42.708 140.327 37.7081 142.43 34.0216 146.173C30.3352 149.917 28.2642 154.993 28.2642 160.287C28.2642 165.581 30.3352 170.658 34.0216 174.401C37.7081 178.144 42.708 180.247 47.9214 180.247H160.321C160.766 180.247 161.193 180.427 161.508 180.747C161.823 181.067 162.001 181.5 162.001 181.953Z" fill="#1B2451"/>
<path d="M159.313 148.175H41.705C41.6159 148.175 41.5304 148.139 41.4674 148.075C41.4044 148.011 41.369 147.924 41.369 147.834C41.369 147.743 41.4044 147.656 41.4674 147.592C41.5304 147.528 41.6159 147.492 41.705 147.492H159.313C159.402 147.492 159.487 147.528 159.55 147.592C159.613 147.656 159.649 147.743 159.649 147.834C159.649 147.924 159.613 148.011 159.55 148.075C159.487 148.139 159.402 148.175 159.313 148.175Z" fill="#CCCCCC"/>
<path d="M159.313 156.363H41.705C41.6159 156.363 41.5304 156.328 41.4674 156.264C41.4044 156.2 41.369 156.113 41.369 156.022C41.369 155.932 41.4044 155.845 41.4674 155.781C41.5304 155.717 41.6159 155.681 41.705 155.681H159.313C159.402 155.681 159.487 155.717 159.55 155.781C159.613 155.845 159.649 155.932 159.649 156.022C159.649 156.113 159.613 156.2 159.55 156.264C159.487 156.328 159.402 156.363 159.313 156.363Z" fill="#CCCCCC"/>
<path d="M159.313 164.552H41.705C41.6159 164.552 41.5304 164.516 41.4674 164.452C41.4044 164.388 41.369 164.301 41.369 164.211C41.369 164.12 41.4044 164.034 41.4674 163.97C41.5304 163.906 41.6159 163.87 41.705 163.87H159.313C159.402 163.87 159.487 163.906 159.55 163.97C159.613 164.034 159.649 164.12 159.649 164.211C159.649 164.301 159.613 164.388 159.55 164.452C159.487 164.516 159.402 164.552 159.313 164.552Z" fill="#CCCCCC"/>
<path d="M159.313 172.741H41.705C41.6159 172.741 41.5304 172.705 41.4674 172.641C41.4044 172.577 41.369 172.49 41.369 172.399C41.369 172.309 41.4044 172.222 41.4674 172.158C41.5304 172.094 41.6159 172.058 41.705 172.058H159.313C159.402 172.058 159.487 172.094 159.55 172.158C159.613 172.222 159.649 172.309 159.649 172.399C159.649 172.49 159.613 172.577 159.55 172.641C159.487 172.705 159.402 172.741 159.313 172.741Z" fill="#CCCCCC"/>
<path d="M243.895 146.288L216.488 180.827L131.267 111.104C121.558 103.16 119.805 88.9496 127.362 79.4277C134.918 69.9057 148.965 68.6218 158.675 76.5657L243.895 146.288Z" fill="#F2F2F2"/>
<path d="M218.792 182.274C218.512 182.626 218.106 182.851 217.663 182.899C217.22 182.948 216.776 182.815 216.429 182.532L128.906 110.925C124.153 107.036 121.115 101.389 120.462 95.2256C119.809 89.0626 121.594 82.8887 125.425 78.062C129.255 73.2353 134.816 70.1512 140.886 69.4883C146.956 68.8253 153.036 70.6377 157.789 74.5268L245.312 146.134C245.484 146.274 245.627 146.448 245.733 146.644C245.839 146.841 245.906 147.057 245.93 147.28C245.953 147.502 245.933 147.728 245.871 147.943C245.809 148.158 245.706 148.358 245.567 148.533C245.429 148.707 245.258 148.853 245.064 148.96C244.87 149.067 244.658 149.135 244.438 149.159C244.219 149.183 243.997 149.162 243.785 149.099C243.573 149.036 243.376 148.931 243.204 148.79L155.681 77.1836C153.671 75.5378 151.362 74.3103 148.884 73.571C146.407 72.8318 143.81 72.5954 141.243 72.8753C138.676 73.1552 136.188 73.9459 133.922 75.2023C131.655 76.4588 129.655 78.1562 128.035 80.1978C126.415 82.2393 125.207 84.585 124.48 87.1007C123.753 89.6164 123.521 92.2529 123.798 94.8597C124.074 97.4664 124.854 99.9922 126.092 102.293C127.331 104.594 129.003 106.624 131.014 108.268L218.537 179.875C218.884 180.159 219.106 180.571 219.153 181.021C219.201 181.471 219.071 181.921 218.792 182.274Z" fill="#CCCCCC"/>
<path d="M237.57 154.259L145.992 79.334C145.957 79.3058 145.929 79.2711 145.907 79.2318C145.886 79.1925 145.873 79.1493 145.868 79.1048C145.864 79.0602 145.868 79.0152 145.88 78.9722C145.892 78.9292 145.913 78.8891 145.941 78.8542C145.968 78.8193 146.003 78.7903 146.041 78.7688C146.08 78.7474 146.123 78.7338 146.166 78.729C146.21 78.7242 146.255 78.7283 146.297 78.7409C146.339 78.7535 146.379 78.7745 146.413 78.8026L237.992 153.727C238.026 153.756 238.055 153.79 238.076 153.83C238.097 153.869 238.111 153.912 238.115 153.957C238.12 154.001 238.116 154.046 238.104 154.089C238.091 154.132 238.071 154.173 238.043 154.207C238.015 154.242 237.981 154.271 237.942 154.293C237.904 154.314 237.861 154.328 237.817 154.333C237.773 154.337 237.729 154.333 237.686 154.321C237.644 154.308 237.605 154.287 237.57 154.259Z" fill="#CCCCCC"/>
<path d="M232.51 160.635L140.932 85.7102C140.862 85.6534 140.818 85.571 140.809 85.4811C140.799 85.3912 140.825 85.3012 140.881 85.2308C140.937 85.1604 141.018 85.1153 141.107 85.1056C141.195 85.0959 141.284 85.1222 141.353 85.1789L232.932 160.104C232.966 160.132 232.995 160.166 233.016 160.206C233.037 160.245 233.051 160.288 233.056 160.333C233.06 160.378 233.056 160.423 233.044 160.466C233.032 160.509 233.011 160.549 232.983 160.584C232.955 160.619 232.921 160.648 232.882 160.669C232.844 160.691 232.801 160.704 232.757 160.709C232.713 160.714 232.669 160.71 232.627 160.697C232.584 160.684 232.545 160.663 232.51 160.635Z" fill="#CCCCCC"/>
<path d="M227.451 167.011L135.872 92.0865C135.802 92.0298 135.758 91.9473 135.749 91.8573C135.739 91.7674 135.765 91.6772 135.821 91.6068C135.877 91.5363 135.958 91.4913 136.047 91.4816C136.135 91.4719 136.224 91.4984 136.294 91.5552L227.872 166.48C227.907 166.508 227.935 166.543 227.956 166.582C227.977 166.621 227.991 166.665 227.995 166.709C228 166.754 227.996 166.799 227.984 166.842C227.971 166.885 227.951 166.925 227.923 166.96C227.895 166.995 227.861 167.024 227.822 167.045C227.784 167.067 227.741 167.08 227.697 167.085C227.653 167.09 227.609 167.086 227.567 167.073C227.524 167.06 227.485 167.039 227.451 167.011Z" fill="#CCCCCC"/>
<path d="M222.391 173.388L130.812 98.4629C130.778 98.4347 130.749 98.4 130.728 98.3607C130.707 98.3214 130.693 98.2782 130.689 98.2337C130.684 98.1891 130.688 98.1441 130.7 98.1011C130.713 98.0581 130.734 98.018 130.761 97.9831C130.789 97.9482 130.823 97.9192 130.862 97.8977C130.901 97.8763 130.943 97.8627 130.987 97.8579C131.031 97.8532 131.075 97.8572 131.117 97.8698C131.16 97.8824 131.199 97.9034 131.234 97.9315L222.812 172.856C222.847 172.884 222.875 172.919 222.897 172.958C222.918 172.998 222.931 173.041 222.936 173.086C222.941 173.13 222.937 173.175 222.924 173.218C222.912 173.261 222.891 173.301 222.863 173.336C222.836 173.371 222.802 173.4 222.763 173.422C222.724 173.443 222.681 173.457 222.638 173.462C222.594 173.466 222.549 173.462 222.507 173.45C222.465 173.437 222.425 173.416 222.391 173.388Z" fill="#CCCCCC"/>
<path d="M113.602 133.277L109.761 133.277L107.934 118.232L113.604 118.232L113.602 133.277Z" fill="#FFB8B8"/>
<path d="M107.017 132.162H114.425V136.899H102.352C102.352 136.277 102.473 135.661 102.707 135.086C102.942 134.511 103.285 133.989 103.719 133.549C104.152 133.11 104.666 132.761 105.232 132.523C105.798 132.285 106.404 132.162 107.017 132.162Z" fill="#2F2E41"/>
<path d="M74.3569 133.277L70.5155 133.277L68.6885 118.232L74.3582 118.232L74.3569 133.277Z" fill="#FFB8B8"/>
<path d="M67.7715 132.162H75.18V136.899H63.1068C63.1068 136.277 63.2275 135.661 63.4619 135.086C63.6963 134.511 64.0399 133.989 64.4731 133.549C64.9062 133.11 65.4204 132.761 65.9864 132.523C66.5523 132.285 67.1589 132.162 67.7715 132.162Z" fill="#2F2E41"/>
<path d="M87.1878 21.677V19.971C87.1878 17.0527 88.3295 14.2539 90.3618 12.1904C92.394 10.1268 95.1504 8.96754 98.0245 8.96754C100.899 8.96754 103.655 10.1268 105.687 12.1904C107.719 14.2539 108.861 17.0527 108.861 19.971V21.677C108.861 23.7808 108.038 25.7986 106.573 27.2862C105.108 28.7739 103.121 29.6097 101.049 29.6097H95.0003C93.9743 29.6097 92.9584 29.4045 92.0106 29.0058C91.0627 28.6072 90.2015 28.0229 89.476 27.2862C88.7506 26.5496 88.1751 25.6751 87.7825 24.7127C87.3899 23.7502 87.1878 22.7187 87.1878 21.677Z" fill="#2F2E41"/>
<path d="M98.0245 30.1967C102.583 30.1967 106.278 26.4448 106.278 21.8167C106.278 17.1885 102.583 13.4366 98.0245 13.4366C93.4665 13.4366 89.7714 17.1885 89.7714 21.8167C89.7714 26.4448 93.4665 30.1967 98.0245 30.1967Z" fill="#FFB8B8"/>
<path d="M53.1333 50.6177C53.4682 50.2966 53.8684 50.0539 54.3056 49.9069C54.7429 49.7598 55.2066 49.7118 55.6641 49.7664C56.1216 49.8209 56.5617 49.9767 56.9535 50.2227C57.3453 50.4686 57.6792 50.7989 57.9317 51.19L65.0065 49.8312L66.8684 53.9953L56.8509 55.7717C56.1755 56.1589 55.3838 56.2811 54.6257 56.1152C53.8676 55.9492 53.1957 55.5067 52.7375 54.8714C52.2793 54.2361 52.0664 53.4522 52.1394 52.6682C52.2123 51.8842 52.566 51.1546 53.1333 50.6177Z" fill="#FFB8B8"/>
<path d="M91.6828 35.6165L80.0814 43.3767L60.5053 49.724C60.2458 49.8086 60.0232 49.982 59.8755 50.2146C59.7277 50.4471 59.6639 50.7245 59.6948 50.9994L60.1219 54.7343C60.1408 54.8996 60.1936 55.0591 60.2768 55.2025C60.3599 55.3459 60.4717 55.47 60.6049 55.567C60.7381 55.664 60.8898 55.7316 61.0502 55.7656C61.2107 55.7995 61.3764 55.7991 61.5366 55.7642L79.9606 51.7543C80.8522 51.5613 81.6953 51.1844 82.4376 50.6469L95.4711 41.2311C95.9436 40.8879 96.3206 40.4264 96.5655 39.8914C96.8103 39.3565 96.9147 38.7663 96.8684 38.1783C96.8206 37.5895 96.6227 37.0234 96.2941 36.5358C95.9655 36.0483 95.5175 35.6559 94.9943 35.3974C94.4711 35.139 93.8906 35.0232 93.31 35.0616C92.7293 35.1 92.1686 35.2913 91.6828 35.6165Z" fill="#CCCCCC"/>
<path d="M109.83 129.008C109.535 129.008 109.246 128.921 108.999 128.757C108.753 128.593 108.558 128.36 108.439 128.086L90.8285 83.9013C90.7874 83.8055 90.7183 83.7247 90.6307 83.6699C90.543 83.6151 90.4409 83.5889 90.3381 83.5948C90.2353 83.6007 90.1368 83.6384 90.0557 83.7028C89.9747 83.7673 89.915 83.8554 89.8847 83.9553L75.517 126.971C75.4564 127.171 75.356 127.356 75.2222 127.516C75.0883 127.675 74.9238 127.805 74.7387 127.897C74.5536 127.99 74.3518 128.043 74.1458 128.053C73.9398 128.063 73.7338 128.031 73.5407 127.957L68.7227 126.122C68.4612 126.024 68.2318 125.853 68.0599 125.63C67.888 125.407 67.7805 125.14 67.7492 124.859C65.5818 105.686 84.4831 57.2924 84.6744 56.8059L84.7273 56.6711L101.957 60.5412L101.993 60.5808C108.868 68.1955 114.518 116.223 115.581 125.774C115.621 126.119 115.543 126.467 115.362 126.761C115.18 127.056 114.905 127.279 114.583 127.393L110.33 128.92C110.169 128.978 110 129.008 109.83 129.008Z" fill="#1B2351"/>
<path d="M94.984 62.0988C90.8095 62.0988 86.1553 61.2537 84.7227 57.7655L84.6897 57.6853L84.7342 57.611C85.865 55.7272 87.3596 52.5135 86.5563 51.9102C84.9739 50.7222 84.206 48.7679 84.2742 46.1013C84.4222 40.3127 88.3066 35.1733 93.9401 33.3126C95.5126 32.8016 97.1129 32.3833 98.7329 32.0596C99.9139 31.8177 101.133 31.8443 102.303 32.1376C103.472 32.4309 104.564 32.9836 105.498 33.7559C106.444 34.5334 107.209 35.5139 107.737 36.6272C108.266 37.7404 108.545 38.9587 108.554 40.1944C108.613 46.3805 107.675 54.9965 102.871 60.9117C102.646 61.1861 102.333 61.3711 101.987 61.4341C99.6755 61.8586 97.3327 62.081 94.984 62.0988Z" fill="#CCCCCC"/>
<path d="M93.4312 61.8672C93.6583 61.0397 94.198 60.3367 94.9328 59.911C95.6676 59.4852 96.5382 59.3711 97.3554 59.5935C97.5222 59.6408 97.6849 59.702 97.8419 59.7764L103.214 54.8125L106.95 57.3681L99.2676 64.2707C98.9207 64.9058 98.3746 65.4048 97.7162 65.6884C97.0578 65.9719 96.3249 66.0238 95.6341 65.8356C95.2317 65.7238 94.8551 65.5321 94.5262 65.2716C94.1972 65.0111 93.9223 64.687 93.7175 64.318C93.5126 63.9489 93.3818 63.5423 93.3327 63.1217C93.2836 62.701 93.317 62.2747 93.4312 61.8672Z" fill="#FFB8B8"/>
<path d="M102.363 61.9303C102.014 61.9305 101.676 61.8081 101.407 61.5839L99.2883 59.8261C99.1117 59.6796 98.97 59.4944 98.8739 59.2844C98.7778 59.0744 98.7297 58.8451 98.7332 58.6135C98.7367 58.382 98.7918 58.1543 98.8943 57.9474C98.9967 57.7405 99.144 57.5599 99.3249 57.419L108.21 50.4997C108.315 50.4172 108.384 50.296 108.402 50.1622C108.42 50.0284 108.385 49.8928 108.305 49.785L102.821 42.4234C102.184 41.5709 101.864 40.5171 101.919 39.4484C101.974 38.3797 102.399 37.3651 103.119 36.5841C103.878 35.7519 104.917 35.2398 106.031 35.1493C107.144 35.0589 108.251 35.3968 109.13 36.096L109.165 36.1331L114.891 44.459C115.51 44.952 116.009 45.5837 116.348 46.3047C116.687 47.0257 116.857 47.8165 116.846 48.6154C116.834 49.4143 116.641 50.1997 116.281 50.9101C115.921 51.6205 115.404 52.2369 114.77 52.7109L103.263 61.6292C103.002 61.8247 102.687 61.9303 102.363 61.9303Z" fill="#CCCCCC"/>
<path d="M90.7141 19.4592V15.3014L98.0245 12.0601L104.995 15.3014V19.4592C104.995 19.6402 104.924 19.8138 104.798 19.9417C104.672 20.0697 104.501 20.1416 104.323 20.1416H91.3862C91.2079 20.1416 91.037 20.0697 90.911 19.9417C90.7849 19.8138 90.7141 19.6402 90.7141 19.4592Z" fill="#2F2E41"/>
<path d="M97.6889 9.51914C96.614 6.02584 98.8714 2.02236 102.209 0.639617C105.546 -0.743121 109.538 0.223456 112.354 2.50795C115.17 4.79244 116.917 8.21418 117.843 11.7512C118.769 15.2883 118.945 18.9766 119.115 22.6323C123.216 23.3971 126.005 28.3351 124.585 32.3148C123.164 36.2944 117.907 38.2716 114.276 36.1915C110.645 34.1114 109.594 28.5199 112.214 25.2277C113.454 23.6699 114.147 21.7366 114.182 19.734C114.218 17.7314 113.595 15.774 112.411 14.1718C111.227 12.5695 109.551 11.4141 107.647 10.8884C105.744 10.3627 103.722 10.4969 101.902 11.2697C99.8816 12.1277 97.3461 9.89829 97.6889 9.51914Z" fill="#2F2E41"/>
<path d="M51.6177 34.4886C46.7086 34.4559 41.8609 33.3779 37.3878 31.3241C37.1215 31.2036 36.8955 31.0071 36.7373 30.7585C36.5791 30.5098 36.4955 30.2199 36.4967 29.9239V17.4984C36.4971 17.0913 36.6566 16.701 36.9401 16.4132C37.2235 16.1254 37.6079 15.9634 38.0088 15.963H65.2265C65.6274 15.9635 66.0118 16.1254 66.2953 16.4132C66.5787 16.701 66.7382 17.0913 66.7386 17.4984V29.9239C66.7398 30.2199 66.6563 30.5099 66.498 30.7585C66.3398 31.0071 66.1138 31.2036 65.8475 31.3241C61.3744 33.3779 56.5267 34.4559 51.6177 34.4886Z" fill="#1B2451"/>
<path d="M51.6139 24.4225C51.4122 24.4227 51.2124 24.3819 51.0263 24.3025L29.443 15.0564C29.1647 14.9371 28.9279 14.736 28.7632 14.4788C28.5985 14.2217 28.5134 13.9204 28.519 13.6137C28.5245 13.307 28.6204 13.009 28.7943 12.7582C28.9681 12.5074 29.212 12.3152 29.4945 12.2064L51.0781 3.8923C51.4257 3.75778 51.8101 3.75861 52.1571 3.89463L73.4515 12.2087C73.7324 12.3184 73.9746 12.5106 74.1472 12.7608C74.3199 13.0111 74.4151 13.3079 74.4206 13.6134C74.4262 13.9189 74.3419 14.2191 74.1784 14.4756C74.015 14.7322 73.7799 14.9334 73.5033 15.0535L52.2087 24.2995C52.0206 24.3808 51.8183 24.4227 51.6139 24.4225Z" fill="#1C2351"/>
<path d="M39.0169 32.1696C40.1303 32.1696 41.033 31.253 41.033 30.1224C41.033 28.9918 40.1303 28.0753 39.0169 28.0753C37.9034 28.0753 37.0007 28.9918 37.0007 30.1224C37.0007 31.253 37.9034 32.1696 39.0169 32.1696Z" fill="#3F3D56"/>
<path opacity="0.2" d="M73.5769 13.7411L52.2822 22.9871C52.1161 23.0592 51.9375 23.0966 51.757 23.097C51.5764 23.0975 51.3976 23.061 51.2313 22.9897L29.648 13.7438C29.3769 13.6304 29.1508 13.4286 29.0053 13.1702C28.9101 13.3378 28.8511 13.524 28.8323 13.7165C28.8134 13.909 28.8351 14.1033 28.8959 14.2866C28.9567 14.47 29.0552 14.6381 29.1848 14.7798C29.3145 14.9215 29.4724 15.0336 29.648 15.1086L51.2313 24.3545C51.3976 24.4257 51.5764 24.4622 51.757 24.4618C51.9375 24.4613 52.1161 24.424 52.2822 24.3519L73.5769 15.1059C73.7516 15.0302 73.9085 14.9178 74.0372 14.776C74.166 14.6342 74.2637 14.4663 74.3239 14.2834C74.384 14.1005 74.4053 13.9067 74.3863 13.7148C74.3672 13.5229 74.3083 13.3373 74.2135 13.1702C74.069 13.4265 73.8452 13.6272 73.5769 13.7411Z" fill="black"/>
<path d="M39.1863 30.1144C39.2754 30.1144 39.3609 30.0785 39.4239 30.0145C39.4869 29.9505 39.5223 29.8637 39.5223 29.7732V18.3565L50.6047 14.257C50.6938 14.2584 50.7798 14.2237 50.8437 14.1607C50.9077 14.0976 50.9444 14.0114 50.9457 13.9209C50.947 13.8304 50.9129 13.7431 50.8508 13.6782C50.7888 13.6132 50.7038 13.576 50.6147 13.5746L39.5323 17.6741C39.4431 17.672 39.3544 17.6883 39.2717 17.7221C39.1889 17.7558 39.1137 17.8062 39.0507 17.8703C38.987 17.9337 38.9364 18.0093 38.902 18.0928C38.8676 18.1763 38.85 18.266 38.8502 18.3565V29.7732C38.8503 29.8637 38.8857 29.9505 38.9487 30.0145C39.0117 30.0785 39.0972 30.1144 39.1863 30.1144Z" fill="white"/>
</svg>
